<svg width="483" height="160" viewBox="0 0 483 160" fill="none" xmlns="http://www.w3.org/2000/svg">
<rect width="483" height="160" fill="white"/>
<path d="M16 84.1429V84.1429C42.0906 99.5132 74.5583 100.966 101.741 87.6217L108.827 84.1429L122.349 76.7669C151.439 60.8988 186.896 62.2996 214.644 80.4132L225.5 87.5V87.5C250.693 100.874 280.999 100.319 305.685 86.031L317.809 79.0138C347.449 61.859 384.256 63.0121 412.764 81.9887L416 84.1429" stroke="black"/>
<path d="M68 96C68 98.7614 65.7614 101 63 101C60.2386 101 58 98.7614 58 96C58 93.2386 60.2386 91 63 91C65.7614 91 68 93.2386 68 96Z" fill="#666666"/>
<path d="M172 64C172 66.7614 169.761 69 167 69C164.239 69 162 66.7614 162 64C162 61.2386 164.239 59 167 59C169.761 59 172 61.2386 172 64Z" fill="#666666"/>
<path d="M376 69C376 71.7614 373.761 74 371 74C368.239 74 366 71.7614 366 69C366 66.2386 368.239 64 371 64C373.761 64 376 66.2386 376 69Z" fill="#666666"/>
<path d="M275 96C275 98.7614 272.761 101 270 101C267.239 101 265 98.7614 265 96C265 93.2386 267.239 91 270 91C272.761 91 275 93.2386 275 96Z" fill="#666666"/>
</svg>
